<svg xmlns="http://www.w3.org/2000/svg" width="1660" height="920" viewBox="0 0 1660 920"><defs><marker id="arrow" markerWidth="9" markerHeight="7" refX="8" refY="3.5" orient="auto"><polygon points="0 0,9 3.5,0 7" fill="#64748b"/></marker></defs><rect width="1660" height="920" fill="#ffffff"/><text x="50" y="68" font-family="Arial" font-size="27" font-weight="bold" fill="#1f2937">Clases de dominio · solicitud</text><text x="50" y="108" font-family="Arial" font-size="17" fill="#475569">Notación UML ligera: atributos y operaciones del dominio, no componentes React ni tablas SQL.</text><line x1="50" y1="145" x2="1610" y2="145" stroke="#cbd5e1"/><line x1="280" y1="500" x2="280" y2="610" stroke="#64748b" stroke-width="2" marker-end="url(#arrow)"/><rect x="195" y="538" width="170" height="23" fill="#ffffff"/><text x="280" y="555" text-anchor="middle" font-family="Arial" font-size="13" fill="#334155">1     0..N</text><line x1="450" y1="360" x2="650" y2="360" stroke="#64748b" stroke-width="2" marker-end="url(#arrow)"/><rect x="465" y="343" width="170" height="23" fill="#ffffff"/><text x="550" y="360" text-anchor="middle" font-family="Arial" font-size="13" fill="#334155">1     0..N</text><line x1="450" y1="722.5" x2="650" y2="360" stroke="#64748b" stroke-width="2" marker-end="url(#arrow)"/><rect x="465" y="524.25" width="170" height="23" fill="#ffffff"/><text x="550" y="541.25" text-anchor="middle" font-family="Arial" font-size="13" fill="#334155">origen/destino 0..1</text><line x1="1035" y1="360" x2="1210" y2="360" stroke="#64748b" stroke-width="2" marker-end="url(#arrow)"/><rect x="1037.5" y="343" width="170" height="23" fill="#ffffff"/><text x="1122.5" y="360" text-anchor="middle" font-family="Arial" font-size="13" fill="#334155">1     1</text><line x1="1390" y1="500" x2="1390" y2="610" stroke="#64748b" stroke-width="2" marker-end="url(#arrow)"/><rect x="1305" y="538" width="170" height="23" fill="#ffffff"/><text x="1390" y="555" text-anchor="middle" font-family="Arial" font-size="13" fill="#334155">1     1..N</text><rect x="110" y="220" width="340" height="280" fill="#e7f3ed" stroke="#277451" stroke-width="2" /><line x1="110" y1="270" x2="450" y2="270" stroke="#277451"/><text x="280" y="254" text-anchor="middle" font-family="Arial" font-size="18" font-weight="bold" fill="#1f2937">Organization</text><text x="280" y="302" text-anchor="middle" font-family="Arial" font-size="15" fill="#334155">+ id: UUID</text><text x="280" y="327" text-anchor="middle" font-family="Arial" font-size="15" fill="#334155">+ status: OrganizationStatus</text><text x="280" y="352" text-anchor="middle" font-family="Arial" font-size="15" fill="#334155">+ owns(memberId): boolean</text><rect x="110" y="610" width="340" height="225" fill="#e7f3ed" stroke="#277451" stroke-width="2" /><line x1="110" y1="660" x2="450" y2="660" stroke="#277451"/><text x="280" y="644" text-anchor="middle" font-family="Arial" font-size="18" font-weight="bold" fill="#1f2937">Facility</text><text x="280" y="692" text-anchor="middle" font-family="Arial" font-size="15" fill="#334155">+ id: UUID</text><text x="280" y="717" text-anchor="middle" font-family="Arial" font-size="15" fill="#334155">+ organizationId: UUID</text><text x="280" y="742" text-anchor="middle" font-family="Arial" font-size="15" fill="#334155">+ location: GeoLocation</text><rect x="650" y="220" width="385" height="280" fill="#e7f3ed" stroke="#277451" stroke-width="2" /><line x1="650" y1="270" x2="1035" y2="270" stroke="#277451"/><text x="842.5" y="254" text-anchor="middle" font-family="Arial" font-size="18" font-weight="bold" fill="#1f2937">FreightRequest</text><text x="842.5" y="302" text-anchor="middle" font-family="Arial" font-size="15" fill="#334155">+ id: UUID</text><text x="842.5" y="327" text-anchor="middle" font-family="Arial" font-size="15" fill="#334155">+ organizationId: UUID</text><text x="842.5" y="352" text-anchor="middle" font-family="Arial" font-size="15" fill="#334155">+ draftVersion: number</text><text x="842.5" y="377" text-anchor="middle" font-family="Arial" font-size="15" fill="#334155">+ status: RequestStatus</text><text x="842.5" y="402" text-anchor="middle" font-family="Arial" font-size="15" fill="#334155">+ submit(expectedVersion): Result</text><rect x="1210" y="220" width="360" height="280" fill="#fff7e8" stroke="#a96616" stroke-width="2" stroke-dasharray="8 5"/><line x1="1210" y1="270" x2="1570" y2="270" stroke="#a96616"/><text x="1390" y="254" text-anchor="middle" font-family="Arial" font-size="18" font-weight="bold" fill="#1f2937">CargoSpecification</text><text x="1390" y="302" text-anchor="middle" font-family="Arial" font-size="15" fill="#334155">+ units: CargoUnit[]</text><text x="1390" y="327" text-anchor="middle" font-family="Arial" font-size="15" fill="#334155">+ grossWeightKg: number</text><text x="1390" y="352" text-anchor="middle" font-family="Arial" font-size="15" fill="#334155">+ volumeM3?: number</text><text x="1390" y="377" text-anchor="middle" font-family="Arial" font-size="15" fill="#334155">+ requirements: CargoRequirement[]</text><text x="1390" y="402" text-anchor="middle" font-family="Arial" font-size="15" fill="#334155">+ validate(): ConstraintResult</text><rect x="1210" y="610" width="360" height="225" fill="#fff7e8" stroke="#a96616" stroke-width="2" stroke-dasharray="8 5"/><line x1="1210" y1="660" x2="1570" y2="660" stroke="#a96616"/><text x="1390" y="644" text-anchor="middle" font-family="Arial" font-size="18" font-weight="bold" fill="#1f2937">CargoUnit</text><text x="1390" y="692" text-anchor="middle" font-family="Arial" font-size="15" fill="#334155">+ quantity: number</text><text x="1390" y="717" text-anchor="middle" font-family="Arial" font-size="15" fill="#334155">+ packageType: PackageType</text><text x="1390" y="742" text-anchor="middle" font-family="Arial" font-size="15" fill="#334155">+ weightKg: number</text><text x="1390" y="767" text-anchor="middle" font-family="Arial" font-size="15" fill="#334155">+ dimensions: Dimensions</text><text x="1390" y="792" text-anchor="middle" font-family="Arial" font-size="15" fill="#334155">+ divisible: boolean</text><text x="50" y="896" font-family="Arial" font-size="13" fill="#64748b">Revisión 24 sep 2026 · borrador de diseño, no prueba de implementación</text></svg>